<svg width="40" height="40" viewBox="0 0 40 40" fill="none" xmlns="http://www.w3.org/2000/svg">
<g clip-path="url(#clip0_321_1017)">
<circle cx="19.6673" cy="22.3333" r="14.3333" fill="white"/>
<path d="M16.4898 21.4862L14.3845 20.4336L12.2793 21.4862V24.1276L14.3845 25.1803L16.4898 24.1276V21.4862Z" fill="#EE9C2D"/>
<path d="M19.2965 19.2154V16.574L17.1912 15.5213L15.0859 16.574V19.2154L17.1912 20.268L19.2965 19.2154Z" fill="#EE9C2D"/>
<path d="M22.1031 21.4865L19.9979 20.4339L17.8926 21.4865V24.1279L19.9979 25.1805L22.1031 24.1279V21.4865Z" fill="#EE9C2D"/>
<path d="M24.9098 19.2154V16.574L22.8045 15.5213L20.6992 16.574V19.2154L22.8045 20.268L24.9098 19.2154Z" fill="#EE9C2D"/>
<path d="M32.12 11.7426L20.4926 0.203599C20.2182 -0.0679631 19.7768 -0.067963 19.5031 0.204302L7.87933 11.7447C1.59231 18.0359 1.59231 28.2724 7.87933 34.5636L8.58386 35.2688C11.633 38.3194 15.6877 40.0001 20.0007 40.0001C24.3144 40.0001 28.3684 38.3194 31.4176 35.2688L32.1221 34.5636C38.4083 28.2723 38.4083 18.0358 32.12 11.7426ZM29.1207 24.5614C29.1207 24.8274 28.9705 25.0702 28.7326 25.1895L26.3137 26.3986V29.4737C26.3137 29.7396 26.1635 29.9824 25.9256 30.1017L23.1186 31.5053C23.0203 31.5544 22.9123 31.5789 22.8049 31.5789C22.6976 31.5789 22.5895 31.5544 22.4913 31.5053L19.9979 30.2582L17.5045 31.5053C17.4063 31.5544 17.2982 31.5789 17.1909 31.5789C17.0835 31.5789 16.9754 31.5544 16.8772 31.5053L14.0702 30.1017C13.8323 29.9824 13.6821 29.7396 13.6821 29.4737V26.3986L11.2631 25.1895C11.0253 25.0702 10.8751 24.8274 10.8751 24.5614V21.0527C10.8751 20.7868 11.0253 20.544 11.2631 20.4247L13.6821 19.2155V16.1404C13.6821 15.8745 13.8323 15.6317 14.0702 15.5124L16.8772 14.1089C17.0744 14.0106 17.3074 14.0106 17.5045 14.1089L19.9979 15.3559L22.4913 14.1089C22.6884 14.0106 22.9214 14.0106 23.1186 14.1089L25.9256 15.5124C26.1635 15.6317 26.3137 15.8745 26.3137 16.1404V19.2155L28.7326 20.4247C28.9705 20.544 29.1207 20.7868 29.1207 21.0527V24.5614Z" fill="#EE9C2D"/>
<path d="M23.5059 21.4865V24.1279L25.6111 25.1805L27.7164 24.1279V21.4865L25.6111 20.4339L23.5059 21.4865Z" fill="#EE9C2D"/>
<path d="M20.6992 26.3988V29.0402L22.8045 30.0928L24.9098 29.0402V26.3988L22.8045 25.3461L20.6992 26.3988Z" fill="#EE9C2D"/>
<path d="M15.0859 26.3988V29.0402L17.1912 30.0928L19.2965 29.0402V26.3988L17.1912 25.3461L15.0859 26.3988Z" fill="#EE9C2D"/>
</g>
<defs>
<clipPath id="clip0_321_1017">
<rect width="40" height="40" fill="white"/>
</clipPath>
</defs>
</svg>
